<?xml version="1.0" encoding="UTF-8" standalone="no"?>
<!-- Created with Inkscape (http://www.inkscape.org/) -->

<svg
   xmlns:dc="http://purl.org/dc/elements/1.1/"
   xmlns:cc="http://creativecommons.org/ns#"
   xmlns:rdf="http://www.w3.org/1999/02/22-rdf-syntax-ns#"
   xmlns:svg="http://www.w3.org/2000/svg"
   xmlns="http://www.w3.org/2000/svg"
   xmlns:sodipodi="http://sodipodi.sourceforge.net/DTD/sodipodi-0.dtd"
   xmlns:inkscape="http://www.inkscape.org/namespaces/inkscape"
   width="177.75"
   height="8.2397461"
   id="svg2"
   version="1.1"
   inkscape:version="0.48.5 r10040"
   sodipodi:docname="mail.svg">
  <defs
     id="defs4" />
  <sodipodi:namedview
     id="base"
     pagecolor="#ffffff"
     bordercolor="#666666"
     borderopacity="1.0"
     inkscape:pageopacity="0.0"
     inkscape:pageshadow="2"
     inkscape:zoom="3.959798"
     inkscape:cx="92.218564"
     inkscape:cy="-13.38074"
     inkscape:document-units="px"
     inkscape:current-layer="layer1"
     showgrid="false"
     width="480px"
     fit-margin-top="0"
     fit-margin-left="0"
     fit-margin-right="0"
     fit-margin-bottom="0"
     inkscape:window-width="1600"
     inkscape:window-height="805"
     inkscape:window-x="0"
     inkscape:window-y="29"
     inkscape:window-maximized="1" />
  <metadata
     id="metadata7">
    <rdf:RDF>
      <cc:Work
         rdf:about="">
        <dc:format>image/svg+xml</dc:format>
        <dc:type
           rdf:resource="http://purl.org/dc/dcmitype/StillImage" />
      </cc:Work>
    </rdf:RDF>
  </metadata>
  <g
     inkscape:label="Layer 1"
     inkscape:groupmode="layer"
     id="layer1"
     transform="translate(-1.7305416,-736.28174)">
    <g
       style="font-size:40px;font-style:normal;font-variant:normal;font-weight:normal;font-stretch:normal;line-height:125%;letter-spacing:0px;word-spacing:0px;fill:#000000;fill-opacity:1;stroke:none;font-family:DejaVu Sans Mono;-inkscape-font-specification:DejaVu Sans Mono"
       id="text2985">
      <path
         d="m 4.2310299,740.64551 -0.2680664,0 c -0.4716821,0 -0.8276387,0.0835 -1.0678711,0.25049 -0.2373062,0.16406 -0.3559585,0.41015 -0.3559571,0.73828 -1.4e-6,0.2959 0.089354,0.52588 0.2680664,0.68994 0.1787091,0.16406 0.4262675,0.24609 0.7426758,0.24609 0.4453097,0 0.795407,-0.15381 1.050293,-0.46142 0.2548791,-0.31055 0.3837852,-0.73828 0.3867187,-1.28321 l 0,-0.18017 -0.7558593,0 m 1.5688476,-0.33399 0,2.80811 -0.8129883,0 0,-0.72949 c -0.1728552,0.29297 -0.3911167,0.50976 -0.6547851,0.65039 -0.2607451,0.13769 -0.5786159,0.20654 -0.9536133,0.20654 -0.5009783,0 -0.9008802,-0.14062 -1.199707,-0.42187 -0.2988289,-0.28418 -0.4482428,-0.66358 -0.4482422,-1.13819 -6e-7,-0.54785 0.1831047,-0.96386 0.5493164,-1.24805 0.3691391,-0.28417 0.9096659,-0.42626 1.621582,-0.42626 l 1.0854492,0 0,-0.12745 c -0.00293,-0.39257 -0.1025428,-0.67675 -0.2988281,-0.85254 -0.1962924,-0.1787 -0.5097686,-0.26806 -0.9404297,-0.26806 -0.2753929,0 -0.553713,0.0396 -0.8349609,0.11865 -0.2812515,0.0791 -0.555177,0.19483 -0.8217774,0.34717 l 0,-0.8086 c 0.2988269,-0.11425 0.5844712,-0.19921 0.8569336,-0.25488 0.2753886,-0.0586 0.5419899,-0.0879 0.7998047,-0.0879 0.4072236,10e-6 0.7543912,0.0601 1.0415039,0.18018 0.2900352,0.12012 0.5244099,0.30029 0.703125,0.54052 0.1113237,0.14649 0.1904252,0.32813 0.2373047,0.54493 0.04687,0.21387 0.070308,0.53613 0.070312,0.96679"
         style="font-size:9px"
         id="path3178" />
      <path
         d="m 11.178784,740.06982 0,3.04981 -0.812989,0 0,-3.04981 c -3e-6,-0.44238 -0.07764,-0.76757 -0.23291,-0.97558 -0.1552765,-0.20801 -0.3984403,-0.31201 -0.7294919,-0.31201 -0.3779321,0 -0.6694357,0.13477 -0.8745117,0.40429 -0.2021502,0.26661 -0.3032243,0.6504 -0.3032226,1.15137 l 0,2.78174 -0.8085938,0 0,-4.92188 0.8085938,0 0,0.73829 c 0.1435529,-0.28125 0.3383769,-0.49365 0.5844726,-0.63721 0.2460913,-0.14648 0.5375949,-0.21972 0.8745117,-0.21973 0.5009729,10e-6 0.8745079,0.16553 1.1206059,0.49658 0.249019,0.32813 0.37353,0.82618 0.373535,1.49414"
         style="font-size:9px"
         id="path3180" />
      <path
         d="m 15.744702,738.82617 0,-2.54443 0.808593,0 0,6.83789 -0.808593,0 0,-0.61963 c -0.13477,0.24316 -0.314945,0.4292 -0.540528,0.55811 -0.222659,0.12597 -0.480471,0.18896 -0.773437,0.18896 -0.594729,0 -1.063478,-0.22998 -1.40625,-0.68994 -0.339845,-0.46289 -0.509766,-1.1001 -0.509766,-1.91162 0,-0.7998 0.171386,-1.42676 0.51416,-1.88086 0.342772,-0.45703 0.810057,-0.68554 1.401856,-0.68555 0.295896,10e-6 0.556638,0.0645 0.782226,0.19336 0.225583,0.12598 0.402829,0.31055 0.531739,0.55371 m -2.377442,1.83692 c -10e-7,0.62695 0.09961,1.10009 0.298828,1.41943 0.199217,0.31934 0.493651,0.479 0.883301,0.479 0.389646,0 0.685544,-0.16113 0.887696,-0.4834 0.205074,-0.32226 0.307613,-0.79394 0.307617,-1.41503 -4e-6,-0.62402 -0.102543,-1.0957 -0.307617,-1.41504 -0.202152,-0.32226 -0.49805,-0.4834 -0.887696,-0.4834 -0.38965,0 -0.684084,0.15967 -0.883301,0.479 -0.19922,0.31934 -0.298829,0.79249 -0.298828,1.41944"
         style="font-size:9px"
         id="path3182" />
      <path
         d="m 22.46394,739.21289 c -0.172856,-0.13476 -0.348638,-0.23291 -0.527344,-0.29443 -0.178715,-0.0615 -0.375004,-0.0923 -0.588867,-0.0923 -0.50391,10e-6 -0.889163,0.15821 -1.155762,0.47461 -0.266604,0.31641 -0.399904,0.77344 -0.399902,1.37109 l 0,2.44776 -0.812988,0 0,-4.92188 0.812988,0 0,0.96241 c 0.134763,-0.34863 0.341306,-0.61523 0.619629,-0.79981 0.281247,-0.18749 0.613766,-0.28124 0.997559,-0.28125 0.199214,10e-6 0.385249,0.0249 0.558105,0.0747 0.172847,0.0498 0.338374,0.12744 0.496582,0.23291 l 0,0.82617"
         style="font-size:9px"
         id="path3184" />
      <path
         d="m 27.689038,740.45654 0,0.39551 -3.502442,0 0,0.0264 c -1e-6,0.53613 0.139159,0.95068 0.417481,1.24365 0.281248,0.29297 0.676755,0.43945 1.186523,0.43945 0.257809,0 0.52734,-0.041 0.808594,-0.12304 0.281246,-0.082 0.581539,-0.20655 0.900879,-0.37354 l 0,0.8042 c -0.307622,0.12598 -0.604985,0.21973 -0.89209,0.28125 -0.284183,0.0644 -0.559574,0.0967 -0.826172,0.0967 -0.764651,0 -1.362306,-0.22852 -1.792969,-0.68555 -0.430664,-0.45996 -0.645996,-1.09277 -0.645996,-1.89843 0,-0.78516 0.210937,-1.41211 0.632813,-1.88086 0.421873,-0.46875 0.984373,-0.70312 1.6875,-0.70313 0.626949,10e-6 1.120601,0.21241 1.480957,0.63721 0.363276,0.42481 0.544917,1.00488 0.544922,1.74023 m -0.808594,-0.2373 c -0.01172,-0.47461 -0.124516,-0.83496 -0.338379,-1.08106 -0.210941,-0.24902 -0.515628,-0.37353 -0.914062,-0.37353 -0.389651,0 -0.710452,0.12891 -0.962403,0.38672 -0.251955,0.25781 -0.401368,0.61523 -0.448242,1.07226 l 2.663086,-0.004"
         style="font-size:9px"
         id="path3186" />
      <path
         d="m 32.49226,738.36914 0,0.79102 c -0.231449,-0.13477 -0.464359,-0.23584 -0.69873,-0.30323 -0.234378,-0.0674 -0.473148,-0.10107 -0.716309,-0.10107 -0.366213,0 -0.640139,0.0601 -0.821777,0.18018 -0.178713,0.11719 -0.268068,0.29736 -0.268066,0.54052 -2e-6,0.21973 0.06738,0.38379 0.202148,0.49219 0.134763,0.1084 0.470212,0.21387 1.006348,0.31641 l 0.325195,0.0615 c 0.401363,0.0762 0.704586,0.22852 0.909668,0.45703 0.208003,0.22852 0.312007,0.52588 0.312012,0.89209 -5e-6,0.48633 -0.172856,0.86719 -0.518555,1.14258 -0.345707,0.27246 -0.826175,0.40869 -1.441406,0.40869 -0.243167,0 -0.498049,-0.0264 -0.764649,-0.0791 -0.266603,-0.0498 -0.555177,-0.12598 -0.865722,-0.22852 l 0,-0.83496 c 0.301756,0.15528 0.59033,0.27246 0.865722,0.35156 0.275389,0.0762 0.536131,0.11426 0.782227,0.11426 0.357419,0 0.634274,-0.0718 0.830566,-0.21533 0.196286,-0.14648 0.29443,-0.3501 0.294434,-0.61084 -4e-6,-0.375 -0.35889,-0.63427 -1.07666,-0.77783 l -0.03516,-0.009 -0.303222,-0.0615 c -0.465822,-0.0908 -0.805666,-0.24317 -1.019532,-0.45704 -0.213868,-0.21679 -0.320801,-0.51122 -0.3208,-0.8833 -1e-6,-0.47167 0.159667,-0.83495 0.479004,-1.08984 0.319334,-0.25781 0.7749,-0.38671 1.366699,-0.38672 0.263669,10e-6 0.517086,0.0249 0.760254,0.0747 0.24316,0.0469 0.481929,0.11866 0.716308,0.21533"
         style="font-size:9px"
         id="path3188" />
      <path
         d="m 35.77937,741.7793 1.107422,0 0,1.34033 -1.107422,0 0,-1.34033"
         style="font-size:9px"
         id="path3190" />
      <path
         d="m 43.663159,740.06982 0,3.04981 -0.812989,0 0,-3.04981 c -3e-6,-0.44238 -0.07764,-0.76757 -0.23291,-0.97558 -0.155277,-0.20801 -0.39844,-0.31201 -0.729492,-0.31201 -0.377932,0 -0.669436,0.13477 -0.874512,0.40429 -0.20215,0.26661 -0.303224,0.6504 -0.303222,1.15137 l 0,2.78174 -0.808594,0 0,-6.83789 0.808594,0 0,2.6543 c 0.143553,-0.28125 0.338377,-0.49365 0.584472,-0.63721 0.246092,-0.14648 0.537595,-0.21972 0.874512,-0.21973 0.500973,10e-6 0.874508,0.16553 1.120606,0.49658 0.249019,0.32813 0.37353,0.82618 0.373535,1.49414"
         style="font-size:9px"
         id="path3192" />
      <path
         d="m 49.345288,740.45654 0,0.39551 -3.502442,0 0,0.0264 c -1e-6,0.53613 0.139159,0.95068 0.417481,1.24365 0.281248,0.29297 0.676755,0.43945 1.186523,0.43945 0.257809,0 0.52734,-0.041 0.808594,-0.12304 0.281246,-0.082 0.581539,-0.20655 0.900879,-0.37354 l 0,0.8042 c -0.307622,0.12598 -0.604985,0.21973 -0.89209,0.28125 -0.284183,0.0644 -0.559574,0.0967 -0.826172,0.0967 -0.764651,0 -1.362306,-0.22852 -1.792969,-0.68555 -0.430664,-0.45996 -0.645996,-1.09277 -0.645996,-1.89843 0,-0.78516 0.210937,-1.41211 0.632813,-1.88086 0.421873,-0.46875 0.984373,-0.70312 1.6875,-0.70313 0.626949,10e-6 1.120601,0.21241 1.480957,0.63721 0.363276,0.42481 0.544917,1.00488 0.544922,1.74023 m -0.808594,-0.2373 c -0.01172,-0.47461 -0.124516,-0.83496 -0.338379,-1.08106 -0.210941,-0.24902 -0.515628,-0.37353 -0.914062,-0.37353 -0.389651,0 -0.710452,0.12891 -0.962403,0.38672 -0.251955,0.25781 -0.401368,0.61523 -0.448242,1.07226 l 2.663086,-0.004"
         style="font-size:9px"
         id="path3194" />
      <path
         d="m 54.948315,739.21289 c -0.172856,-0.13476 -0.348638,-0.23291 -0.527344,-0.29443 -0.178715,-0.0615 -0.375004,-0.0923 -0.588867,-0.0923 -0.50391,10e-6 -0.889163,0.15821 -1.155762,0.47461 -0.266604,0.31641 -0.399904,0.77344 -0.399902,1.37109 l 0,2.44776 -0.812988,0 0,-4.92188 0.812988,0 0,0.96241 c 0.134763,-0.34863 0.341306,-0.61523 0.619629,-0.79981 0.281247,-0.18749 0.613766,-0.28124 0.997559,-0.28125 0.199214,10e-6 0.385249,0.0249 0.558105,0.0747 0.172847,0.0498 0.338374,0.12744 0.496582,0.23291 l 0,0.82617"
         style="font-size:9px"
         id="path3196" />
      <path
         d="m 59.905346,740.06982 0,3.04981 -0.812988,0 0,-3.04981 c -4e-6,-0.44238 -0.07764,-0.76757 -0.23291,-0.97558 -0.155277,-0.20801 -0.398441,-0.31201 -0.729492,-0.31201 -0.377933,0 -0.669436,0.13477 -0.874512,0.40429 -0.20215,0.26661 -0.303224,0.6504 -0.303223,1.15137 l 0,2.78174 -0.808593,0 0,-4.92188 0.808593,0 0,0.73829 c 0.143553,-0.28125 0.338377,-0.49365 0.584473,-0.63721 0.246091,-0.14648 0.537595,-0.21972 0.874512,-0.21973 0.500973,10e-6 0.874507,0.16553 1.120605,0.49658 0.249019,0.32813 0.373531,0.82618 0.373535,1.49414"
         style="font-size:9px"
         id="path3198" />
      <path
         d="m 63.785717,740.64551 -0.268066,0 c -0.471682,0 -0.827639,0.0835 -1.067871,0.25049 -0.237306,0.16406 -0.355959,0.41015 -0.355957,0.73828 -2e-6,0.2959 0.08935,0.52588 0.268066,0.68994 0.178709,0.16406 0.426268,0.24609 0.742676,0.24609 0.44531,0 0.795407,-0.15381 1.050293,-0.46142 0.254879,-0.31055 0.383785,-0.73828 0.386719,-1.28321 l 0,-0.18017 -0.75586,0 m 1.568848,-0.33399 0,2.80811 -0.812988,0 0,-0.72949 c -0.172855,0.29297 -0.391117,0.50976 -0.654785,0.65039 -0.260746,0.13769 -0.578616,0.20654 -0.953614,0.20654 -0.500978,0 -0.90088,-0.14062 -1.199707,-0.42187 -0.298829,-0.28418 -0.448242,-0.66358 -0.448242,-1.13819 0,-0.54785 0.183105,-0.96386 0.549316,-1.24805 0.36914,-0.28417 0.909666,-0.42626 1.621583,-0.42626 l 1.085449,0 0,-0.12745 c -0.0029,-0.39257 -0.102543,-0.67675 -0.298828,-0.85254 -0.196293,-0.1787 -0.509769,-0.26806 -0.94043,-0.26806 -0.275393,0 -0.553713,0.0396 -0.834961,0.11865 -0.281251,0.0791 -0.555177,0.19483 -0.821777,0.34717 l 0,-0.8086 c 0.298827,-0.11425 0.584471,-0.19921 0.856933,-0.25488 0.275389,-0.0586 0.54199,-0.0879 0.799805,-0.0879 0.407223,10e-6 0.754391,0.0601 1.041504,0.18018 0.290035,0.12012 0.52441,0.30029 0.703125,0.54052 0.111324,0.14649 0.190425,0.32813 0.237305,0.54493 0.04687,0.21387 0.07031,0.53613 0.07031,0.96679"
         style="font-size:9px"
         id="path3200" />
      <path
         d="m 70.733471,740.06982 0,3.04981 -0.812988,0 0,-3.04981 c -4e-6,-0.44238 -0.07764,-0.76757 -0.23291,-0.97558 -0.155277,-0.20801 -0.398441,-0.31201 -0.729492,-0.31201 -0.377933,0 -0.669436,0.13477 -0.874512,0.40429 -0.20215,0.26661 -0.303224,0.6504 -0.303223,1.15137 l 0,2.78174 -0.808593,0 0,-4.92188 0.808593,0 0,0.73829 c 0.143553,-0.28125 0.338377,-0.49365 0.584473,-0.63721 0.246091,-0.14648 0.537595,-0.21972 0.874512,-0.21973 0.500973,10e-6 0.874507,0.16553 1.120605,0.49658 0.249019,0.32813 0.373531,0.82618 0.373535,1.49414"
         style="font-size:9px"
         id="path3202" />
      <path
         d="m 75.299389,738.82617 0,-2.54443 0.808594,0 0,6.83789 -0.808594,0 0,-0.61963 c -0.134769,0.24316 -0.314945,0.4292 -0.540527,0.55811 -0.222659,0.12597 -0.480472,0.18896 -0.773438,0.18896 -0.594728,0 -1.063478,-0.22998 -1.40625,-0.68994 -0.339844,-0.46289 -0.509766,-1.1001 -0.509765,-1.91162 -10e-7,-0.7998 0.171386,-1.42676 0.51416,-1.88086 0.342772,-0.45703 0.810057,-0.68554 1.401855,-0.68555 0.295896,10e-6 0.556638,0.0645 0.782227,0.19336 0.225582,0.12598 0.402828,0.31055 0.531738,0.55371 m -2.377441,1.83692 c -2e-6,0.62695 0.09961,1.10009 0.298828,1.41943 0.199217,0.31934 0.49365,0.479 0.883301,0.479 0.389645,0 0.685543,-0.16113 0.887695,-0.4834 0.205075,-0.32226 0.307613,-0.79394 0.307617,-1.41503 -4e-6,-0.62402 -0.102542,-1.0957 -0.307617,-1.41504 -0.202152,-0.32226 -0.49805,-0.4834 -0.887695,-0.4834 -0.389651,0 -0.684084,0.15967 -0.883301,0.479 -0.19922,0.31934 -0.29883,0.79249 -0.298828,1.41944"
         style="font-size:9px"
         id="path3204" />
      <path
         d="m 81.829663,740.45654 0,0.39551 -3.502442,0 0,0.0264 c -10e-7,0.53613 0.139159,0.95068 0.417481,1.24365 0.281248,0.29297 0.676755,0.43945 1.186523,0.43945 0.257809,0 0.52734,-0.041 0.808594,-0.12304 0.281246,-0.082 0.581539,-0.20655 0.900879,-0.37354 l 0,0.8042 c -0.307622,0.12598 -0.604985,0.21973 -0.89209,0.28125 -0.284183,0.0644 -0.559574,0.0967 -0.826172,0.0967 -0.764651,0 -1.362306,-0.22852 -1.792969,-0.68555 -0.430664,-0.45996 -0.645996,-1.09277 -0.645996,-1.89843 0,-0.78516 0.210937,-1.41211 0.632813,-1.88086 0.421873,-0.46875 0.984373,-0.70312 1.6875,-0.70313 0.626949,10e-6 1.120601,0.21241 1.480957,0.63721 0.363276,0.42481 0.544917,1.00488 0.544922,1.74023 m -0.808594,-0.2373 c -0.01172,-0.47461 -0.124516,-0.83496 -0.338379,-1.08106 -0.210941,-0.24902 -0.515628,-0.37353 -0.914062,-0.37353 -0.389651,0 -0.710452,0.12891 -0.962403,0.38672 -0.251955,0.25781 -0.401368,0.61523 -0.448242,1.07226 l 2.663086,-0.004"
         style="font-size:9px"
         id="path3206" />
      <path
         d="m 83.354565,738.18896 3.572754,0 0,0.73829 -2.825684,3.5332 2.825684,0 0,0.65918 -3.678223,0 0,-0.74707 2.825684,-3.5376 -2.720215,0 0,-0.646"
         style="font-size:9px"
         id="path3208" />
      <path
         d="m 92.332592,740.72461 c -4e-6,-0.37793 -0.09375,-0.67969 -0.28125,-0.90527 -0.187504,-0.22852 -0.437992,-0.34277 -0.751464,-0.34278 -0.31348,1e-5 -0.565433,0.11426 -0.75586,0.34278 -0.187502,0.22558 -0.281252,0.52734 -0.28125,0.90527 -2e-6,0.38086 0.09375,0.68555 0.28125,0.91406 0.190427,0.22559 0.44238,0.33838 0.75586,0.33838 0.313472,0 0.56396,-0.11279 0.751464,-0.33838 0.187496,-0.22851 0.281246,-0.5332 0.28125,-0.91406 m 0.615235,1.80176 -0.632813,0 0,-0.4878 c -0.108403,0.18458 -0.259281,0.32667 -0.452636,0.42627 -0.190434,0.0996 -0.405766,0.14942 -0.645997,0.14942 -0.471682,0 -0.862795,-0.17725 -1.173339,-0.53174 -0.30762,-0.35449 -0.461428,-0.80713 -0.461426,-1.35791 -2e-6,-0.55078 0.153806,-1.00342 0.461426,-1.35791 0.310544,-0.35449 0.701657,-0.53173 1.173339,-0.53174 0.234372,10e-6 0.449704,0.0513 0.645997,0.15381 0.196284,0.10254 0.347163,0.24317 0.452636,0.42187 l 0,-0.27685 c -4e-6,-0.45703 -0.12891,-0.8247 -0.386719,-1.10303 -0.257816,-0.27831 -0.599124,-0.41747 -1.023925,-0.41748 -0.720706,10e-6 -1.294924,0.28126 -1.722657,0.84375 -0.424805,0.55958 -0.637207,1.31836 -0.637207,2.27637 0,0.96387 0.241699,1.73144 0.725098,2.30273 0.483397,0.57129 1.126462,0.85694 1.929199,0.85694 0.1582,0 0.316403,-0.0146 0.47461,-0.0439 0.158199,-0.0293 0.320796,-0.0747 0.487793,-0.13623 l 0.210937,0.59326 c -0.184575,0.0732 -0.36768,0.12744 -0.549316,0.1626 -0.178715,0.0352 -0.353031,0.0527 -0.522949,0.0527 -1.045901,0 -1.876467,-0.34131 -2.4917,-1.02392 -0.612305,-0.68262 -0.918457,-1.604 -0.918457,-2.76416 0,-1.14258 0.275391,-2.05224 0.826172,-2.72901 0.55078,-0.67675 1.28906,-1.01513 2.214844,-1.01513 0.612301,0 1.101558,0.19483 1.467773,0.58447 0.366206,0.38965 0.549312,0.9126 0.549317,1.56885 l 0,3.38379"
         style="font-size:9px"
         id="path3210" />
      <path
         d="m 97.847729,742.86914 c -0.216801,0.12598 -0.440922,0.21973 -0.672363,0.28125 -0.22852,0.0644 -0.462894,0.0967 -0.703125,0.0967 -0.761721,0 -1.357912,-0.22852 -1.788574,-0.68555 -0.427736,-0.45703 -0.641603,-1.08984 -0.641602,-1.89843 -10e-7,-0.80859 0.213866,-1.44141 0.641602,-1.89844 0.430662,-0.45703 1.026853,-0.68554 1.788574,-0.68555 0.237301,10e-6 0.468746,0.0308 0.694336,0.0923 0.225581,0.0615 0.452632,0.15674 0.681152,0.28564 l 0,0.84815 c -0.213872,-0.19043 -0.429203,-0.32813 -0.645996,-0.41309 -0.213871,-0.085 -0.457035,-0.12744 -0.729492,-0.12744 -0.506839,0 -0.896487,0.16407 -1.168946,0.49219 -0.272462,0.32812 -0.408693,0.79687 -0.408691,1.40625 -2e-6,0.60644 0.136229,1.07519 0.408691,1.40625 0.275389,0.32812 0.665037,0.49218 1.168946,0.49218 0.281246,0 0.533199,-0.0425 0.755859,-0.12744 0.222652,-0.0879 0.429195,-0.22265 0.619629,-0.40429 l 0,0.83935"
         style="font-size:9px"
         id="path3212" />
      <path
         d="m 99.724194,738.19775 2.069826,0 0,4.29346 1.604,0 0,0.62842 -4.0166,0 0,-0.62842 1.604,0 0,-3.66504 -1.261226,0 0,-0.62842 m 1.261226,-1.91601 0.8086,0 0,1.02392 -0.8086,0 0,-1.02392"
         style="font-size:9px"
         id="path3214" />
      <path
         d="m 108.89998,740.45654 0,0.39551 -3.50245,0 0,0.0264 c 0,0.53613 0.13916,0.95068 0.41748,1.24365 0.28125,0.29297 0.67676,0.43945 1.18653,0.43945 0.25781,0 0.52734,-0.041 0.80859,-0.12304 0.28125,-0.082 0.58154,-0.20655 0.90088,-0.37354 l 0,0.8042 c -0.30762,0.12598 -0.60498,0.21973 -0.89209,0.28125 -0.28418,0.0644 -0.55957,0.0967 -0.82617,0.0967 -0.76465,0 -1.36231,-0.22852 -1.79297,-0.68555 -0.43066,-0.45996 -0.646,-1.09277 -0.646,-1.89843 0,-0.78516 0.21094,-1.41211 0.63282,-1.88086 0.42187,-0.46875 0.98437,-0.70312 1.6875,-0.70313 0.62695,10e-6 1.1206,0.21241 1.48095,0.63721 0.36328,0.42481 0.54492,1.00488 0.54493,1.74023 m -0.8086,-0.2373 c -0.0117,-0.47461 -0.12451,-0.83496 -0.33838,-1.08106 -0.21094,-0.24902 -0.51563,-0.37353 -0.91406,-0.37353 -0.38965,0 -0.71045,0.12891 -0.9624,0.38672 -0.25196,0.25781 -0.40137,0.61523 -0.44824,1.07226 l 2.66308,-0.004"
         style="font-size:9px"
         id="path3216" />
      <path
         d="m 114.04597,740.06982 0,3.04981 -0.81299,0 0,-3.04981 c 0,-0.44238 -0.0776,-0.76757 -0.23291,-0.97558 -0.15527,-0.20801 -0.39844,-0.31201 -0.72949,-0.31201 -0.37793,0 -0.66944,0.13477 -0.87451,0.40429 -0.20215,0.26661 -0.30323,0.6504 -0.30322,1.15137 l 0,2.78174 -0.8086,0 0,-4.92188 0.8086,0 0,0.73829 c 0.14355,-0.28125 0.33837,-0.49365 0.58447,-0.63721 0.24609,-0.14648 0.53759,-0.21972 0.87451,-0.21973 0.50097,10e-6 0.87451,0.16553 1.12061,0.49658 0.24902,0.32813 0.37353,0.82618 0.37353,1.49414"
         style="font-size:9px"
         id="path3218" />
      <path
         d="m 119.50398,742.86914 c -0.2168,0.12598 -0.44092,0.21973 -0.67236,0.28125 -0.22852,0.0644 -0.4629,0.0967 -0.70313,0.0967 -0.76172,0 -1.35791,-0.22852 -1.78857,-0.68555 -0.42774,-0.45703 -0.64161,-1.08984 -0.6416,-1.89843 -10e-6,-0.80859 0.21386,-1.44141 0.6416,-1.89844 0.43066,-0.45703 1.02685,-0.68554 1.78857,-0.68555 0.2373,10e-6 0.46875,0.0308 0.69434,0.0923 0.22558,0.0615 0.45263,0.15674 0.68115,0.28564 l 0,0.84815 c -0.21387,-0.19043 -0.4292,-0.32813 -0.646,-0.41309 -0.21387,-0.085 -0.45703,-0.12744 -0.72949,-0.12744 -0.50684,0 -0.89649,0.16407 -1.16894,0.49219 -0.27247,0.32812 -0.4087,0.79687 -0.4087,1.40625 0,0.60644 0.13623,1.07519 0.4087,1.40625 0.27538,0.32812 0.66503,0.49218 1.16894,0.49218 0.28125,0 0.5332,-0.0425 0.75586,-0.12744 0.22265,-0.0879 0.42919,-0.22265 0.61963,-0.40429 l 0,0.83935"
         style="font-size:9px"
         id="path3220" />
      <path
         d="m 121.38044,738.19775 2.06983,0 0,4.29346 1.604,0 0,0.62842 -4.0166,0 0,-0.62842 1.604,0 0,-3.66504 -1.26123,0 0,-0.62842 m 1.26123,-1.91601 0.8086,0 0,1.02392 -0.8086,0 0,-1.02392"
         style="font-size:9px"
         id="path3222" />
      <path
         d="m 128.75447,740.64551 -0.26807,0 c -0.47168,0 -0.82764,0.0835 -1.06787,0.25049 -0.23731,0.16406 -0.35596,0.41015 -0.35596,0.73828 0,0.2959 0.0894,0.52588 0.26807,0.68994 0.17871,0.16406 0.42627,0.24609 0.74268,0.24609 0.4453,0 0.7954,-0.15381 1.05029,-0.46142 0.25488,-0.31055 0.38378,-0.73828 0.38672,-1.28321 l 0,-0.18017 -0.75586,0 m 1.56885,-0.33399 0,2.80811 -0.81299,0 0,-0.72949 c -0.17286,0.29297 -0.39112,0.50976 -0.65479,0.65039 -0.26074,0.13769 -0.57861,0.20654 -0.95361,0.20654 -0.50098,0 -0.90088,-0.14062 -1.19971,-0.42187 -0.29883,-0.28418 -0.44824,-0.66358 -0.44824,-1.13819 0,-0.54785 0.1831,-0.96386 0.54932,-1.24805 0.36913,-0.28417 0.90966,-0.42626 1.62158,-0.42626 l 1.08545,0 0,-0.12745 c -0.003,-0.39257 -0.10255,-0.67675 -0.29883,-0.85254 -0.19629,-0.1787 -0.50977,-0.26806 -0.94043,-0.26806 -0.27539,0 -0.55371,0.0396 -0.83496,0.11865 -0.28125,0.0791 -0.55518,0.19483 -0.82178,0.34717 l 0,-0.8086 c 0.29883,-0.11425 0.58447,-0.19921 0.85693,-0.25488 0.27539,-0.0586 0.54199,-0.0879 0.79981,-0.0879 0.40722,10e-6 0.75439,0.0601 1.0415,0.18018 0.29004,0.12012 0.52441,0.30029 0.70313,0.54052 0.11132,0.14649 0.19042,0.32813 0.2373,0.54493 0.0469,0.21387 0.0703,0.53613 0.0703,0.96679"
         style="font-size:9px"
         id="path3224" />
      <path
         d="m 135.35945,738.36914 0,0.79102 c -0.23145,-0.13477 -0.46436,-0.23584 -0.69873,-0.30323 -0.23438,-0.0674 -0.47315,-0.10107 -0.71631,-0.10107 -0.36621,0 -0.64014,0.0601 -0.82178,0.18018 -0.17871,0.11719 -0.26807,0.29736 -0.26806,0.54052 -1e-5,0.21973 0.0674,0.38379 0.20214,0.49219 0.13477,0.1084 0.47022,0.21387 1.00635,0.31641 l 0.3252,0.0615 c 0.40136,0.0762 0.70458,0.22852 0.90966,0.45703 0.20801,0.22852 0.31201,0.52588 0.31202,0.89209 -1e-5,0.48633 -0.17286,0.86719 -0.51856,1.14258 -0.34571,0.27246 -0.82617,0.40869 -1.4414,0.40869 -0.24317,0 -0.49805,-0.0264 -0.76465,-0.0791 -0.26661,-0.0498 -0.55518,-0.12598 -0.86573,-0.22852 l 0,-0.83496 c 0.30176,0.15528 0.59033,0.27246 0.86573,0.35156 0.27539,0.0762 0.53613,0.11426 0.78222,0.11426 0.35742,0 0.63428,-0.0718 0.83057,-0.21533 0.19629,-0.14648 0.29443,-0.3501 0.29443,-0.61084 0,-0.375 -0.35889,-0.63427 -1.07666,-0.77783 l -0.0352,-0.009 -0.30323,-0.0615 c -0.46582,-0.0908 -0.80566,-0.24317 -1.01953,-0.45704 -0.21387,-0.21679 -0.3208,-0.51122 -0.3208,-0.8833 0,-0.47167 0.15967,-0.83495 0.47901,-1.08984 0.31933,-0.25781 0.7749,-0.38671 1.3667,-0.38672 0.26366,10e-6 0.51708,0.0249 0.76025,0.0747 0.24316,0.0469 0.48193,0.11866 0.71631,0.21533"
         style="font-size:9px"
         id="path3226" />
      <path
         d="m 138.64656,741.7793 1.10742,0 0,1.34033 -1.10742,0 0,-1.34033"
         style="font-size:9px"
         id="path3228" />
      <path
         d="m 142.76863,741.25635 0,-3.04981 0.80859,0 0,3.04981 c 0,0.44238 0.0776,0.76758 0.23291,0.97558 0.1582,0.20801 0.40137,0.31202 0.72949,0.31202 0.38086,0 0.67236,-0.1333 0.87452,-0.39991 0.20214,-0.26953 0.30321,-0.65478 0.30322,-1.15576 l 0,-2.78174 0.81299,0 0,4.91309 -0.81299,0 0,-0.73828 c -0.14356,0.28418 -0.33985,0.49951 -0.58887,0.64599 -0.2461,0.14649 -0.53467,0.21973 -0.86572,0.21973 -0.50391,0 -0.87891,-0.16406 -1.125,-0.49219 -0.2461,-0.33105 -0.36914,-0.83056 -0.36914,-1.49853"
         style="font-size:9px"
         id="path3230" />
      <path
         d="m 151.94441,740.06982 0,3.04981 -0.81299,0 0,-3.04981 c 0,-0.44238 -0.0776,-0.76757 -0.23291,-0.97558 -0.15528,-0.20801 -0.39844,-0.31201 -0.72949,-0.31201 -0.37793,0 -0.66944,0.13477 -0.87451,0.40429 -0.20215,0.26661 -0.30323,0.6504 -0.30323,1.15137 l 0,2.78174 -0.80859,0 0,-4.92188 0.80859,0 0,0.73829 c 0.14356,-0.28125 0.33838,-0.49365 0.58448,-0.63721 0.24609,-0.14648 0.53759,-0.21972 0.87451,-0.21973 0.50097,10e-6 0.87451,0.16553 1.1206,0.49658 0.24902,0.32813 0.37353,0.82618 0.37354,1.49414"
         style="font-size:9px"
         id="path3232" />
      <path
         d="m 155.82478,740.64551 -0.26807,0 c -0.47168,0 -0.82764,0.0835 -1.06787,0.25049 -0.2373,0.16406 -0.35596,0.41015 -0.35595,0.73828 -1e-5,0.2959 0.0893,0.52588 0.26806,0.68994 0.17871,0.16406 0.42627,0.24609 0.74268,0.24609 0.44531,0 0.7954,-0.15381 1.05029,-0.46142 0.25488,-0.31055 0.38379,-0.73828 0.38672,-1.28321 l 0,-0.18017 -0.75586,0 m 1.56885,-0.33399 0,2.80811 -0.81299,0 0,-0.72949 c -0.17286,0.29297 -0.39112,0.50976 -0.65479,0.65039 -0.26074,0.13769 -0.57861,0.20654 -0.95361,0.20654 -0.50098,0 -0.90088,-0.14062 -1.19971,-0.42187 -0.29883,-0.28418 -0.44824,-0.66358 -0.44824,-1.13819 0,-0.54785 0.18311,-0.96386 0.54932,-1.24805 0.36914,-0.28417 0.90966,-0.42626 1.62158,-0.42626 l 1.08545,0 0,-0.12745 c -0.003,-0.39257 -0.10254,-0.67675 -0.29883,-0.85254 -0.19629,-0.1787 -0.50977,-0.26806 -0.94043,-0.26806 -0.27539,0 -0.55371,0.0396 -0.83496,0.11865 -0.28125,0.0791 -0.55518,0.19483 -0.82178,0.34717 l 0,-0.8086 c 0.29883,-0.11425 0.58447,-0.19921 0.85694,-0.25488 0.27539,-0.0586 0.54199,-0.0879 0.7998,-0.0879 0.40722,10e-6 0.75439,0.0601 1.04151,0.18018 0.29003,0.12012 0.52441,0.30029 0.70312,0.54052 0.11132,0.14649 0.19043,0.32813 0.23731,0.54493 0.0469,0.21387 0.0703,0.53613 0.0703,0.96679"
         style="font-size:9px"
         id="path3234" />
      <path
         d="m 161.12458,738.69873 c 0.0996,-0.21093 0.22559,-0.36621 0.37793,-0.46582 0.15527,-0.10253 0.34131,-0.1538 0.55811,-0.15381 0.3955,10e-6 0.67382,0.15382 0.83496,0.46143 0.16406,0.30469 0.24609,0.88037 0.24609,1.72705 l 0,2.85205 -0.73828,0 0,-2.8169 c 0,-0.69433 -0.0395,-1.12499 -0.11865,-1.29199 -0.0762,-0.16992 -0.2168,-0.25488 -0.42187,-0.25488 -0.23438,0 -0.39552,0.0908 -0.4834,0.27246 -0.085,0.17872 -0.12745,0.60352 -0.12744,1.27441 l 0,2.8169 -0.73829,0 0,-2.8169 c 0,-0.70312 -0.0425,-1.13671 -0.12744,-1.30078 -0.082,-0.16406 -0.23144,-0.24609 -0.44824,-0.24609 -0.21387,0 -0.36328,0.0908 -0.44824,0.27246 -0.082,0.17872 -0.12305,0.60352 -0.12305,1.27441 l 0,2.8169 -0.73388,0 0,-4.92188 0.73388,0 0,0.42188 c 0.0967,-0.17578 0.2168,-0.30908 0.36035,-0.3999 0.14649,-0.0937 0.31201,-0.14062 0.49659,-0.14063 0.22265,10e-6 0.40722,0.0513 0.55371,0.15381 0.14941,0.10254 0.26513,0.25782 0.34716,0.46582"
         style="font-size:9px"
         id="path3236" />
      <path
         d="m 165.71687,741.7793 1.10742,0 0,1.34033 -1.10742,0 0,-1.34033"
         style="font-size:9px"
         id="path3238" />
      <path
         d="m 171.95271,738.69873 c 0.0996,-0.21093 0.22558,-0.36621 0.37793,-0.46582 0.15527,-0.10253 0.3413,-0.1538 0.5581,-0.15381 0.39551,10e-6 0.67383,0.15382 0.83497,0.46143 0.16405,0.30469 0.24608,0.88037 0.24609,1.72705 l 0,2.85205 -0.73828,0 0,-2.8169 c -1e-5,-0.69433 -0.0396,-1.12499 -0.11865,-1.29199 -0.0762,-0.16992 -0.2168,-0.25488 -0.42188,-0.25488 -0.23438,0 -0.39551,0.0908 -0.4834,0.27246 -0.085,0.17872 -0.12744,0.60352 -0.12744,1.27441 l 0,2.8169 -0.73828,0 0,-2.8169 c 0,-0.70312 -0.0425,-1.13671 -0.12744,-1.30078 -0.082,-0.16406 -0.23145,-0.24609 -0.44824,-0.24609 -0.21387,0 -0.36329,0.0908 -0.44825,0.27246 -0.082,0.17872 -0.12304,0.60352 -0.12304,1.27441 l 0,2.8169 -0.73389,0 0,-4.92188 0.73389,0 0,0.42188 c 0.0967,-0.17578 0.21679,-0.30908 0.36035,-0.3999 0.14648,-0.0937 0.31201,-0.14062 0.49658,-0.14063 0.22265,10e-6 0.40722,0.0513 0.55371,0.15381 0.14941,0.10254 0.26514,0.25782 0.34717,0.46582"
         style="font-size:9px"
         id="path3240" />
      <path
         d="m 179.30915,738.19775 -1.7622,2.35547 1.93359,2.56641 -0.93603,0 -1.44141,-1.97315 -1.43701,1.97315 -0.93604,0 1.9336,-2.56641 -1.76221,-2.35547 0.89648,0 1.30518,1.77979 1.29639,-1.77979 0.90966,0"
         style="font-size:9px"
         id="path3242" />
    </g>
  </g>
</svg>
